<mxfile host="app.diagrams.net" modified="2024-06-19T02:22:48.685Z" agent="Mozilla/5.0 (Windows NT 10.0; Win64; x64; rv:127.0) Gecko/20100101 Firefox/127.0" version="24.5.5" etag="rlQPuQbsCxctGxRccwRp" type="github">
  <diagram name="Page-1" id="V831sWptZKblAnN923n_">
    <mxGraphModel>
      <root>
        <mxCell id="0" />
        <mxCell id="1" parent="0" />
      </root>
    </mxGraphModel>
  </diagram>
</mxfile>
